<svg id="Layer_1" data-name="Layer 1" xmlns="http://www.w3.org/2000/svg" xmlns:xlink="http://www.w3.org/1999/xlink" viewBox="0 0 1045 274.73"><defs><style>.cls-1{fill:none;}.cls-2{clip-path:url(#clip-path);}.cls-3{fill:#e3051b;}.cls-4{fill:#255669;}.cls-4,.cls-5{fill-rule:evenodd;}.cls-5,.cls-6{fill:#fff;}</style><clipPath id="clip-path"><polyline class="cls-1" points="1065.16 274.42 -306.73 274.42 -306.73 -320.86 1065.16 -320.86"/></clipPath></defs><g class="cls-2"><path class="cls-3" d="M1074.75,80.58l-112-.59V78l112,.59ZM963.43,78.29a1,1,0,0,1-1.3,1.52.57.57,0,0,1-.11-.11ZM962,79.7,921.67,39.2l1.42-1.41,40.34,40.52-.71,1.7Zm-39-42a1,1,0,1,1-1.29,1.53h0Zm.07.06-1.42,1.44.06.06-.65-.53-.66-.5-.64-.46-.64-.42-.63-.39-.63-.35-.61-.32-.62-.28-.6-.25-.6-.21-.59-.18-.59-.14-.58-.12-.57-.07h-2.26l-.56.07-.55.11-.56.15-.55.17-.56.2-.55.24-.56.27-.55.3-.56.34-.56.36-.55.4-.56.44-.56.46-.56.5-1.36-1.47.61-.54.61-.51.62-.48.62-.45.62-.41.63-.38.64-.34.64-.31.64-.28.65-.23.66-.21.65-.17.67-.13.67-.09.67-.06h1.35l.68.06.68.09.68.13.69.17.69.21.68.24.69.28.69.32.69.35.69.39.7.43.7.46.69.5.7.54.71.57Zm-21.41-.18a1,1,0,0,1,1.41,0h0a1,1,0,0,1,0,1.41ZM903.1,39l-87.82,88-1.4-1.41,87.81-88h0Zm-89.22,86.52a1,1,0,0,1,1.44,1.38l-.09.09Zm0,0,1.41,1.41h0l-.61.55-.61.5-.62.48-.62.45-.62.41-.63.38-.64.34-.63.31-.65.28-.65.23-.65.21-.66.17-.67.13-.66.09-.67.06h-1.36l-.68-.06-.68-.09-.68-.13-.69-.17-.68-.21-.69-.24-.69-.28-.69-.32-.69-.35-.69-.39-.69-.43-.7-.46-.7-.5-.7-.54-.7-.57,1.28-1.53.66.53.65.5.64.46.64.42.63.39.63.35.62.32.61.28.6.25.6.21.59.18.59.14.58.12.57.08h2.26l.56-.08.56-.11.55-.15.56-.17.55-.2.56-.24.55-.27.56-.3.55-.34.56-.36.56-.4.56-.43.56-.47.56-.5Zm-18.58-.18a1,1,0,0,1-1.3,1.52.57.57,0,0,1-.11-.11Zm-1.42,1.44L753.53,86.25,755,84.84l40.34,40.52L794,126.83ZM754.24,84.55a1,1,0,0,1,0,2Zm0,2L644.94,86V84l109.3.59.71.29Z"/><path class="cls-4" d="M-15.26,274.73V58.2l808.89-.58a1.13,1.13,0,0,0,.81-.34l40.3-40.46c3.42-2.86,6.61-4.24,9.63-4.24s5.92,1.38,8.81,4l76.7,76.83c3.33,3.06,6.76,4.64,10.37,4.64s7.28-1.56,11.13-4.79l.12-.11,34.55-34.69,79.14-.56V274.73Z"/><path class="cls-5" d="M966.53,78l98.62.52v2L964.56,80ZM644.94,84l109.3.59a1,1,0,0,1,.7.29l40.31,40.48c3.45,2.88,6.67,4.27,9.73,4.27s6-1.39,8.92-4.08l74-74.11,1.41,1.41L815.25,127c-3.3,3-6.7,4.6-10.27,4.6s-7.2-1.55-11-4.75l-.07-.06L753.85,86.54,645,86Z"/><path class="cls-6" d="M1069.88,57.72l-84.36.6v-2l84.36-.59ZM984.8,56.61A1,1,0,0,1,986.22,58ZM986.22,58,951.3,93.09l-1.42-1.42L984.8,56.61l.7-.3ZM950,91.61a1,1,0,0,1,1.28,1.54h0Zm-.07.06,1.42,1.42-.07.06-.7.57-.7.53-.7.5-.7.47-.69.42L947,96l-.69.36-.69.31L945,97l-.68.24-.69.21-.68.16-.69.14-.68.09-.68.06h-1.35l-.67-.06-.67-.09-.66-.14-.66-.16-.66-.21-.65-.24-.64-.27-.64-.31-.63-.35-.63-.38-.63-.41-.62-.44-.62-.48-.61-.51-.61-.54,1.36-1.47.56.5.56.46.56.43.55.41.56.36.56.34.55.3.56.27.55.23.56.21.55.17.56.14.55.11.56.08.56,0h1.13l.57,0,.58-.08.58-.11.58-.14.59-.18.6-.21.61-.25.61-.28.62-.32.62-.35.63-.39.64-.42.65-.46.65-.5.66-.54Zm-18.57.19a1,1,0,0,1-1.41,1.42h0Zm-1.43,1.41L853.22,16.49l1.42-1.41L931.3,91.86l-1.39,1.44ZM854.61,15.05a1,1,0,1,1-1.36,1.47Zm0,0-1.42,1.41h0l-.56-.5-.56-.46-.55-.44-.56-.4-.56-.36-.56-.34-.55-.3-.56-.27-.55-.24-.56-.2-.55-.17-.56-.14-.55-.11-.56-.08h-2.26l-.57.08-.58.11-.59.14-.59.18-.6.21-.6.25-.62.28-.61.32-.63.35-.63.39-.64.42-.64.46-.66.5-.65.54-1.2-1.48.71-.57.7-.54.7-.49.69-.47.7-.42.69-.39.69-.36.69-.32.69-.28.69-.24.68-.21.69-.17.68-.13.68-.09.68-.06H845l.67.06.67.09.67.14.65.16.66.21.65.24.64.27.64.31.64.35.63.37.62.42.62.44.62.48.61.51.61.54Zm-21.4.18a1,1,0,0,1,1.52,1.3.57.57,0,0,1-.11.11Zm1.41,1.41L794.33,57.2l-1.45-1.42,40.35-40.52.06-.06ZM793.56,55.45a1,1,0,0,1,0,2Zm0,2-821.63.6v-2l821.62-.6.71,1.71Z"/></g></svg>